<?xml version="1.0" encoding="UTF-8"?>
<svg xmlns="http://www.w3.org/2000/svg" viewBox="0 0 595.97 595.97">
  <defs>
    <style>
      .cls-1 {
        fill: none;
      }

      .cls-2 {
        fill: #a11f24;
      }
    </style>
  </defs>
  <g id="Background">
    <rect class="cls-1" width="595.97" height="595.97"/>
  </g>
  <g id="Year_of_the_Dragon_symbol" data-name="Year of the Dragon symbol">
    <g>
      <g>
        <path class="cls-2" d="m297.98,515.25c-57.22,0-111.01-22.64-151.46-63.75-40.44-41.1-62.72-95.75-62.72-153.87s22.27-112.77,62.72-153.87c40.45-41.11,94.24-63.75,151.46-63.75s111.01,22.64,151.46,63.75c40.45,41.1,62.72,95.75,62.72,153.87s-22.27,112.77-62.72,153.87c-40.45,41.11-94.24,63.75-151.46,63.75Zm0-430.8c-115.65,0-209.74,95.63-209.74,213.18s94.09,213.18,209.74,213.18,209.74-95.63,209.74-213.18-94.09-213.18-209.74-213.18Z"/>
        <path class="cls-2" d="m297.98,557.35c-68.3,0-132.5-27.02-180.79-76.09-48.27-49.05-74.85-114.27-74.85-183.63s26.58-134.57,74.85-183.63c48.29-49.07,112.49-76.09,180.79-76.09s132.5,27.02,180.79,76.09c48.27,49.05,74.85,114.27,74.85,183.63s-26.58,134.58-74.85,183.63c-48.29,49.07-112.49,76.09-180.79,76.09Zm0-511.33c-66.1,0-128.26,26.16-175.01,73.67-46.77,47.53-72.52,110.72-72.52,177.94s25.76,130.41,72.52,177.94c46.75,47.51,108.9,73.67,175.01,73.67s128.26-26.16,175.01-73.67c46.77-47.53,72.52-110.72,72.52-177.94s-25.76-130.41-72.52-177.94c-46.75-47.51-108.9-73.67-175.01-73.67Z"/>
        <path class="cls-2" d="m297.98,544.22c-5.99,0-11.99-.22-17.85-.65-1.23-.09-2.16-1.17-2.07-2.4l.69-9.39c.09-1.23,1.16-2.15,2.4-2.07,9,.66,18.21.79,27.28.38l-.3-5.67c-3.26.14-6.67.21-10.16.21-7.62,0-15.31-.39-22.86-1.15l-1.91,17.22c-.07.59-.36,1.13-.83,1.5-.47.37-1.06.54-1.65.47-7.73-.9-15.54-2.19-23.21-3.85-5.85-1.26-11.68-2.75-17.32-4.41-1.18-.35-1.86-1.58-1.52-2.77l2.6-9.04c.16-.57.55-1.06,1.07-1.34.52-.29,1.14-.35,1.71-.19,5.35,1.58,10.84,2.97,16.33,4.16,3.39.73,6.83,1.39,10.27,1.97l.86-5.6c-3.23-.55-6.58-1.2-10-1.94-7.46-1.61-14.89-3.61-22.11-5.95l-5.38,16.42c-.19.57-.59,1.04-1.13,1.31-.54.27-1.16.31-1.72.12-7.39-2.51-14.76-5.43-21.92-8.67-5.47-2.47-10.87-5.16-16.04-7.97-1.08-.59-1.48-1.93-.91-3.01l4.39-8.29c.28-.53.76-.92,1.33-1.09.57-.17,1.19-.11,1.72.18,4.91,2.67,10,5.2,15.12,7.52,3.17,1.43,6.4,2.81,9.63,4.1l1.99-5.29c-3.05-1.22-6.2-2.57-9.39-4.01-6.96-3.15-13.83-6.68-20.41-10.49l-8.62,14.91c-.3.52-.8.9-1.38,1.05-.58.15-1.2.06-1.71-.25-6.7-4.01-13.32-8.42-19.66-13.11-4.85-3.58-9.58-7.34-14.06-11.19-.93-.8-1.05-2.19-.26-3.13l5.99-7.18c.38-.46.94-.75,1.53-.8.6-.04,1.19.14,1.64.53,4.25,3.65,8.71,7.2,13.25,10.55,2.8,2.07,5.68,4.09,8.58,6.04l3.02-4.75c-2.74-1.85-5.55-3.83-8.38-5.92-6.17-4.56-12.16-9.46-17.81-14.58l-11.47,12.76c-.4.45-.97.71-1.57.74-.6.02-1.18-.19-1.62-.6-5.74-5.34-11.3-11.06-16.55-16.98-4-4.51-7.85-9.19-11.46-13.91-.74-.97-.57-2.36.4-3.12l7.33-5.76c.47-.37,1.07-.54,1.66-.46.59.08,1.13.39,1.5.86,3.43,4.48,7.06,8.89,10.81,13.12,2.32,2.62,4.72,5.21,7.16,7.73l3.91-3.99c-2.3-2.38-4.65-4.92-6.99-7.57-5.1-5.75-9.96-11.82-14.45-18.03l-13.83,10.05c-.48.35-1.09.5-1.68.4-.59-.1-1.12-.43-1.46-.92-4.52-6.44-8.79-13.2-12.71-20.1-2.99-5.26-5.8-10.65-8.36-16.03-.53-1.11-.07-2.43,1.04-2.97l8.35-4.08c.54-.26,1.16-.3,1.72-.1.56.2,1.03.61,1.28,1.15,2.43,5.1,5.08,10.19,7.89,15.12,1.74,3.05,3.56,6.1,5.43,9.08l4.63-3.07c-1.76-2.82-3.54-5.8-5.29-8.88-3.81-6.71-7.33-13.67-10.45-20.7l-15.58,6.91c-.55.24-1.17.26-1.73.04-.56-.22-1-.65-1.24-1.2-3.1-7.25-5.9-14.77-8.32-22.34-1.85-5.78-3.5-11.65-4.9-17.44-.29-1.2.44-2.4,1.64-2.7l9-2.23c.58-.14,1.19-.05,1.7.26s.87.81,1.02,1.39c1.33,5.5,2.89,11.03,4.62,16.46,1.07,3.36,2.23,6.73,3.46,10.05l5.15-2.02c-1.15-3.13-2.28-6.42-3.36-9.8-2.36-7.37-4.37-14.93-5.99-22.47l-16.66,3.47c-.59.12-1.19,0-1.69-.32-.5-.33-.84-.84-.96-1.43-1.55-7.75-2.75-15.69-3.57-23.61-.62-6.04-1.04-12.13-1.23-18.1-.02-.59.2-1.17.61-1.6.41-.43.97-.69,1.56-.7l9.26-.28c1.24-.06,2.27.93,2.31,2.17.18,5.66.57,11.41,1.15,17.07.36,3.52.81,7.07,1.33,10.57l5.44-.89c-.48-3.31-.91-6.76-1.28-10.29-.8-7.72-1.22-15.54-1.26-23.26l-17.02-.13c-.59,0-1.16-.25-1.58-.67-.42-.42-.65-1-.64-1.59.07-7.9.52-15.93,1.34-23.85.62-6.04,1.47-12.09,2.5-17.96.1-.59.44-1.11.93-1.45.49-.34,1.09-.47,1.68-.36l9.12,1.68c1.21.22,2.01,1.38,1.8,2.59-.98,5.58-1.78,11.28-2.36,16.94-.36,3.52-.65,7.09-.86,10.64l5.51.28c.2-3.33.49-6.79.85-10.32.8-7.72,1.99-15.47,3.53-23.03l-16.64-3.73c-1.2-.27-1.96-1.46-1.7-2.66,1.68-7.72,3.77-15.47,6.19-23.05,1.85-5.79,3.91-11.52,6.12-17.04.22-.56.66-1,1.21-1.23.55-.23,1.17-.23,1.73,0l8.57,3.57c1.13.47,1.67,1.76,1.22,2.9-2.1,5.24-4.04,10.65-5.78,16.07-1.08,3.37-2.09,6.81-3.02,10.24l5.33,1.44c.88-3.21,1.86-6.53,2.94-9.9,2.36-7.38,5.11-14.71,8.17-21.79l-15.53-7.17c-1.11-.51-1.61-1.83-1.1-2.95,3.23-7.19,6.85-14.34,10.77-21.24,2.99-5.26,6.18-10.44,9.48-15.38.33-.5.85-.84,1.44-.96.59-.11,1.2.02,1.69.36l7.66,5.31c1,.7,1.26,2.07.59,3.08-3.13,4.69-6.14,9.57-8.94,14.5-1.74,3.07-3.44,6.22-5.05,9.38l4.93,2.54c1.52-2.95,3.16-5.99,4.9-9.05,3.82-6.73,8.01-13.32,12.45-19.59l-13.73-10.3c-.98-.73-1.19-2.12-.47-3.11,4.63-6.35,9.64-12.58,14.88-18.5,4-4.51,8.18-8.9,12.42-13.04.43-.42,1-.67,1.61-.64.6.01,1.17.27,1.58.7l6.4,6.81c.84.89.81,2.28-.07,3.13-4.01,3.92-7.95,8.06-11.71,12.29-2.34,2.64-4.64,5.36-6.86,8.1l4.31,3.53c2.08-2.56,4.3-5.18,6.63-7.8,5.11-5.77,10.56-11.33,16.18-16.53l-11.33-12.98c-.8-.92-.72-2.32.19-3.14,5.83-5.24,12-10.27,18.34-14.95,4.84-3.57,9.82-6.98,14.81-10.13.51-.32,1.12-.42,1.71-.29.58.14,1.09.5,1.4,1.02l4.87,8.01c.63,1.04.31,2.4-.72,3.06-4.73,2.99-9.43,6.2-13.97,9.55-2.82,2.08-5.63,4.25-8.36,6.47l3.51,4.38c2.56-2.07,5.27-4.16,8.08-6.23,6.18-4.56,12.64-8.85,19.2-12.74l-8.43-15.09c-.6-1.07-.22-2.42.84-3.03,6.77-3.89,13.84-7.51,21-10.75,5.46-2.47,11.03-4.75,16.56-6.78.56-.21,1.18-.18,1.72.08.54.26.96.72,1.16,1.28l3.12,8.87c.41,1.16-.19,2.42-1.34,2.85-5.24,1.92-10.49,4.07-15.62,6.39-3.18,1.44-6.37,2.97-9.49,4.56l2.54,5.04c2.92-1.48,6-2.95,9.18-4.39,6.97-3.16,14.16-5.98,21.37-8.4l-5.15-16.54c-.37-1.17.28-2.42,1.45-2.8,7.42-2.38,15.08-4.42,22.75-6.08,5.85-1.26,11.77-2.32,17.59-3.13.59-.08,1.19.07,1.66.43.47.36.79.9.86,1.49l1.24,9.33c.16,1.22-.69,2.34-1.91,2.51-5.52.77-11.1,1.77-16.58,2.95-3.4.74-6.83,1.56-10.2,2.45l1.45,5.47c3.16-.83,6.48-1.62,9.88-2.35,7.46-1.61,15.07-2.86,22.61-3.7l-1.66-17.26c-.12-1.23.78-2.32,2.01-2.44,13.65-1.33,27.79-1.49,41.34-.49.59.04,1.14.32,1.53.77.39.45.58,1.04.54,1.63l-.69,9.39c-.09,1.23-1.16,2.16-2.4,2.07-9.01-.66-18.2-.79-27.28-.38l.3,5.67c3.27-.14,6.68-.21,10.16-.21,7.62,0,15.31.39,22.86,1.15l1.91-17.22c.07-.59.36-1.13.83-1.5.47-.37,1.06-.54,1.65-.47,7.74.9,15.55,2.19,23.21,3.85,5.85,1.26,11.67,2.75,17.32,4.41,1.18.35,1.86,1.58,1.52,2.77l-2.6,9.04c-.17.57-.55,1.06-1.07,1.34-.52.29-1.14.35-1.71.19-5.35-1.57-10.85-2.97-16.33-4.16-3.4-.73-6.84-1.4-10.27-1.97l-.86,5.61c3.23.55,6.59,1.2,10,1.94,7.45,1.61,14.89,3.61,22.11,5.96l5.38-16.42c.19-.57.59-1.04,1.13-1.31.54-.27,1.15-.31,1.72-.12,7.38,2.51,14.76,5.43,21.92,8.67,5.46,2.47,10.86,5.15,16.04,7.97,1.08.59,1.48,1.93.91,3.01l-4.39,8.29c-.28.53-.76.92-1.33,1.1-.57.17-1.19.11-1.71-.18-4.91-2.67-10-5.2-15.12-7.52-3.17-1.43-6.4-2.81-9.63-4.1l-1.99,5.29c3.05,1.22,6.2,2.57,9.39,4.01,6.96,3.15,13.82,6.68,20.41,10.5l8.62-14.91c.3-.52.8-.9,1.38-1.05.58-.15,1.2-.06,1.71.25,6.7,4.02,13.32,8.43,19.66,13.11,4.84,3.57,9.57,7.34,14.06,11.19.93.8,1.05,2.19.26,3.13l-5.99,7.18c-.38.46-.94.75-1.53.8-.6.05-1.19-.14-1.64-.53-4.26-3.65-8.71-7.2-13.25-10.55-2.8-2.07-5.68-4.09-8.58-6.04l-3.02,4.75c2.73,1.84,5.54,3.82,8.38,5.92,6.16,4.55,12.15,9.45,17.82,14.58l11.47-12.76c.4-.45.97-.71,1.57-.74.6-.03,1.18.19,1.62.6,5.73,5.34,11.3,11.05,16.55,16.98,4,4.51,7.86,9.19,11.46,13.91.74.97.57,2.36-.4,3.12l-7.33,5.76c-.47.37-1.07.53-1.66.46-.59-.08-1.13-.39-1.5-.86-3.42-4.48-7.06-8.89-10.81-13.12-2.32-2.62-4.73-5.21-7.16-7.73l-3.91,3.99c2.3,2.39,4.65,4.92,6.99,7.57,5.1,5.75,9.96,11.82,14.45,18.03l13.83-10.05c.49-.35,1.09-.49,1.68-.4.59.1,1.12.43,1.46.92,4.52,6.44,8.79,13.2,12.71,20.1,2.99,5.26,5.8,10.65,8.36,16.03.53,1.11.07,2.43-1.04,2.97l-8.35,4.08c-.54.26-1.16.3-1.72.1-.56-.2-1.03-.61-1.28-1.15-2.43-5.1-5.08-10.19-7.89-15.12-1.74-3.06-3.56-6.11-5.43-9.08l-4.63,3.07c1.77,2.82,3.54,5.8,5.29,8.88,3.81,6.71,7.33,13.67,10.45,20.7l15.58-6.91c.55-.24,1.17-.26,1.73-.04.56.22,1,.65,1.24,1.2,3.1,7.24,5.9,14.76,8.32,22.35,1.85,5.77,3.5,11.64,4.9,17.44.29,1.2-.44,2.4-1.64,2.7l-9,2.23c-.58.14-1.19.05-1.7-.26-.51-.31-.87-.81-1.01-1.39-1.33-5.49-2.89-11.03-4.62-16.46-1.08-3.36-2.24-6.73-3.46-10.05l-5.15,2.02c1.15,3.13,2.28,6.42,3.36,9.8,2.36,7.38,4.37,14.93,5.99,22.47l16.66-3.47c.58-.12,1.19,0,1.69.32.5.33.84.84.96,1.43,1.55,7.74,2.75,15.69,3.57,23.61.62,6.05,1.04,12.14,1.23,18.1.02.59-.2,1.17-.61,1.6-.41.43-.97.69-1.56.7l-9.26.28c-1.21.03-2.27-.93-2.3-2.17-.18-5.67-.57-11.41-1.15-17.07-.36-3.52-.81-7.07-1.33-10.57l-5.45.89c.48,3.3.91,6.75,1.28,10.29.8,7.71,1.22,15.54,1.26,23.26l17.02.13c.59,0,1.16.25,1.58.67.42.42.65,1,.64,1.59-.07,7.91-.52,15.93-1.34,23.85-.63,6.05-1.47,12.09-2.5,17.96-.1.59-.44,1.11-.93,1.45-.49.34-1.1.47-1.68.36l-9.12-1.68c-1.21-.22-2.01-1.38-1.8-2.59.98-5.57,1.78-11.27,2.36-16.95.37-3.54.65-7.1.86-10.64l-5.51-.28c-.2,3.32-.49,6.78-.85,10.32-.8,7.72-1.99,15.47-3.53,23.03l16.64,3.73c1.2.27,1.96,1.46,1.7,2.66-1.68,7.71-3.77,15.47-6.19,23.05-1.85,5.77-3.91,11.51-6.12,17.04-.22.56-.66,1-1.21,1.23-.55.23-1.17.23-1.73,0l-8.57-3.57c-1.13-.47-1.67-1.76-1.22-2.9,2.1-5.24,4.04-10.65,5.78-16.07,1.08-3.38,2.09-6.81,3.02-10.24l-5.33-1.44c-.88,3.21-1.86,6.53-2.94,9.9-2.1,6.56-4.97,14.22-7.98,21.3l15.4,7.68c1.07.54,1.53,1.82,1.04,2.92-3.23,7.2-6.86,14.35-10.77,21.24-2.99,5.26-6.17,10.43-9.48,15.38-.33.5-.85.84-1.44.96-.59.11-1.2-.02-1.69-.36l-7.66-5.31c-1-.7-1.26-2.07-.59-3.08,3.13-4.68,6.14-9.56,8.94-14.5,1.75-3.08,3.44-6.22,5.05-9.38l-4.93-2.54c-1.51,2.94-3.15,5.98-4.9,9.05-3.4,5.98-7.77,12.86-12.16,19.16l13.5,10.77c.94.75,1.12,2.1.41,3.07-4.63,6.36-9.64,12.58-14.88,18.5-4,4.52-8.18,8.91-12.42,13.04-.43.42-1.02.63-1.61.64-.6-.01-1.17-.27-1.58-.71l-6.4-6.81c-.83-.89-.81-2.28.07-3.13,4.02-3.93,7.96-8.07,11.71-12.29,2.34-2.64,4.64-5.35,6.86-8.1l-4.31-3.54c-2.08,2.56-4.3,5.18-6.63,7.8-5.11,5.77-10.56,11.33-16.18,16.53l11.33,12.98c.8.92.72,2.32-.19,3.14-5.83,5.24-12,10.27-18.34,14.95-4.83,3.57-9.82,6.98-14.81,10.13-.51.32-1.12.42-1.71.29-.58-.14-1.09-.5-1.4-1.02l-4.87-8.01c-.63-1.04-.31-2.4.72-3.06,4.74-2.99,9.44-6.2,13.97-9.55,2.83-2.09,5.64-4.26,8.36-6.47l-3.51-4.38c-2.56,2.07-5.27,4.16-8.08,6.23-6.18,4.57-12.64,8.85-19.2,12.74l8.43,15.09c.6,1.07.22,2.42-.84,3.03-6.77,3.89-13.84,7.51-21,10.75-5.47,2.47-11.04,4.75-16.56,6.78-.56.21-1.18.18-1.72-.08-.54-.25-.96-.72-1.16-1.28l-3.12-8.87c-.41-1.16.19-2.42,1.34-2.85,5.25-1.93,10.51-4.08,15.62-6.39,3.18-1.44,6.37-2.97,9.49-4.56l-2.54-5.04c-2.93,1.48-6.01,2.95-9.18,4.39-6.97,3.15-14.16,5.98-21.37,8.41l5.15,16.54c.37,1.17-.28,2.42-1.45,2.8-7.42,2.38-15.08,4.42-22.75,6.08-5.85,1.26-11.76,2.32-17.59,3.13-.59.08-1.19-.07-1.66-.43-.47-.36-.79-.9-.86-1.49l-1.24-9.33c-.16-1.22.69-2.34,1.91-2.51,5.52-.77,11.1-1.77,16.58-2.95,3.4-.73,6.82-1.56,10.2-2.45l-1.46-5.47c-3.17.83-6.48,1.62-9.88,2.35-7.46,1.61-15.07,2.86-22.61,3.7l1.66,17.26c.12,1.23-.78,2.32-2.01,2.44-7.75.76-15.66,1.14-23.49,1.14Zm-15.28-4.96c11.87.76,24.14.63,36.12-.43l-1.66-17.23c-.12-1.23.78-2.32,2-2.44l.5-.05c.4-.04.8-.08,1.2-.12,7.55-.83,15.17-2.07,22.63-3.68,4.11-.89,8.08-1.86,11.82-2.88.58-.16,1.19-.08,1.71.22.52.3.89.79,1.05,1.37l2.6,9.8c.32,1.19-.38,2.41-1.57,2.73-4.15,1.14-8.38,2.18-12.58,3.08-4.86,1.05-9.8,1.95-14.71,2.69l.65,4.89c4.99-.75,10.04-1.67,15.03-2.75,6.8-1.47,13.59-3.25,20.21-5.3l-5.15-16.52c-.36-1.17.28-2.42,1.44-2.79l1.63-.53c7.22-2.41,14.41-5.23,21.39-8.38,3.83-1.73,7.53-3.52,10.98-5.31.53-.28,1.15-.33,1.72-.14.57.18,1.04.59,1.31,1.12l4.55,9.03c.55,1.09.12,2.43-.96,2.99-3.82,1.99-7.75,3.9-11.68,5.68-4.54,2.05-9.19,3.98-13.85,5.74l1.64,4.64c4.72-1.79,9.47-3.75,14.13-5.87,6.36-2.88,12.64-6.05,18.7-9.46l-8.42-15.07c-.6-1.07-.23-2.41.83-3.03l.47-.27c.34-.2.67-.39,1.01-.59,6.56-3.88,13.02-8.16,19.21-12.72,3.4-2.51,6.64-5.04,9.65-7.52.46-.38,1.05-.56,1.66-.5.6.06,1.14.36,1.52.83l6.3,7.87c.76.95.62,2.34-.32,3.12-3.32,2.74-6.77,5.44-10.26,8.02-4.03,2.97-8.18,5.84-12.38,8.55l2.54,4.19c4.26-2.75,8.5-5.67,12.62-8.72,5.63-4.16,11.13-8.6,16.36-13.21l-11.32-12.96c-.8-.92-.72-2.31.18-3.13l.4-.36c.29-.26.59-.53.88-.8,5.63-5.18,11.08-10.74,16.19-16.5,2.81-3.17,5.47-6.33,7.9-9.39.37-.47.92-.77,1.52-.83.59-.07,1.19.11,1.66.49l7.77,6.37c.95.78,1.09,2.17.33,3.12-2.7,3.4-5.52,6.77-8.4,10.01-3.33,3.76-6.81,7.45-10.37,10.99l3.33,3.55c3.6-3.58,7.15-7.34,10.57-11.2,4.67-5.27,9.16-10.8,13.35-16.44l-12.8-10.22c-.26-.08-.48-.19-.67-.32-.49-.35-1.52-1.59-.5-3.14h0s.04-.05.04-.05c0-.02.02-.03.03-.05,0,0,0-.01.01-.02,4.71-6.62,9.49-14.1,13.13-20.5,2.11-3.71,4.06-7.36,5.81-10.86.27-.54.74-.94,1.31-1.13.57-.18,1.19-.14,1.72.14l8.91,4.59c1.09.56,1.52,1.89.98,2.99-1.94,3.88-4.01,7.77-6.16,11.56-2.49,4.39-5.14,8.73-7.9,12.94l3.98,2.76c2.8-4.28,5.5-8.71,8.05-13.2,3.49-6.15,6.75-12.5,9.69-18.9l-14.6-7.28c-.27-.02-.52-.08-.72-.18-.8-.35-1.75-1.43-1.14-2.98h0s.02-.04.02-.04c.01-.03.02-.05.03-.08,3.25-7.48,6.41-15.8,8.66-22.84,1.3-4.06,2.46-8.05,3.46-11.85.15-.58.53-1.07,1.04-1.37.51-.3,1.13-.38,1.71-.22l9.65,2.61c1.19.32,1.89,1.54,1.58,2.73-1.1,4.21-2.33,8.45-3.66,12.61-1.54,4.82-3.25,9.63-5.08,14.32l4.44,1.85c1.86-4.78,3.6-9.69,5.18-14.63,2.15-6.74,4.03-13.61,5.6-20.47l-16.61-3.72c-1.2-.27-1.95-1.45-1.7-2.65l.13-.59c.08-.37.16-.74.24-1.11,1.56-7.56,2.75-15.3,3.55-23.03.44-4.26.76-8.4.96-12.32.03-.59.29-1.15.74-1.55.44-.4,1.02-.61,1.61-.57l9.97.51c1.23.06,2.18,1.11,2.12,2.35-.21,4.34-.55,8.75-1,13.11-.52,5.04-1.21,10.1-2.03,15.07l4.72.87c.84-5.06,1.54-10.24,2.08-15.42.73-7.04,1.16-14.15,1.29-21.19l-17-.13c-1.23,0-2.23-1.01-2.22-2.25v-.59c0-.38,0-.76,0-1.15-.02-7.72-.44-15.55-1.24-23.27-.44-4.26-.97-8.38-1.58-12.25-.19-1.22.64-2.36,1.85-2.56l9.86-1.61c.59-.1,1.19.05,1.67.4.48.35.81.88.9,1.46.68,4.3,1.25,8.69,1.7,13.04.52,5.03.89,10.11,1.09,15.16l4.79-.15c-.21-5.14-.59-10.35-1.12-15.54-.73-7.03-1.76-14.08-3.07-20.98l-16.64,3.46c-.58.12-1.19,0-1.69-.32-.5-.33-.84-.84-.96-1.42l-.1-.47c-.08-.41-.16-.82-.25-1.23-1.6-7.54-3.61-15.11-5.97-22.5-1.3-4.06-2.66-7.98-4.05-11.65-.43-1.15.13-2.43,1.28-2.88l9.32-3.66c.56-.22,1.18-.21,1.72.04.55.24.97.69,1.19,1.25,1.55,4.06,3,8.23,4.33,12.39,1.54,4.81,2.94,9.7,4.17,14.58l4.66-1.15c-1.26-4.99-2.7-10.02-4.28-14.97-2.15-6.72-4.6-13.39-7.29-19.86l-15.56,6.9c-.55.24-1.17.26-1.72.04-.56-.22-1-.65-1.24-1.2l-.14-.32c-.18-.42-.36-.84-.55-1.27-3.11-7.04-6.62-14.02-10.44-20.74-2.1-3.7-4.24-7.24-6.35-10.54-.66-1.03-.37-2.4.65-3.07l8.36-5.54c.5-.33,1.11-.45,1.7-.32.59.12,1.1.48,1.42.98,2.34,3.64,4.62,7.41,6.77,11.21,2.48,4.37,4.85,8.86,7.05,13.37l4.33-2.12c-2.25-4.62-4.69-9.23-7.25-13.75-3.47-6.11-7.23-12.11-11.19-17.87l-13.81,10.03c-.48.35-1.09.49-1.68.4-.59-.1-1.12-.43-1.46-.92l-.29-.41c-.23-.33-.47-.66-.71-1-4.48-6.23-9.35-12.32-14.46-18.08-2.81-3.17-5.63-6.19-8.37-8.97-.86-.87-.86-2.27,0-3.14l7.05-7.19c.42-.43.99-.67,1.59-.67h0c.6,0,1.17.24,1.59.66,3.04,3.07,6.04,6.28,8.92,9.53,3.32,3.74,6.55,7.63,9.63,11.58l3.81-2.99c-3.15-4.04-6.47-8.04-9.91-11.91-4.65-5.24-9.55-10.32-14.59-15.11l-11.46,12.74c-.4.44-.96.71-1.56.74-.59.03-1.18-.19-1.62-.59l-.36-.34c-.3-.28-.6-.55-.9-.83-5.66-5.15-11.66-10.07-17.84-14.63-3.41-2.52-6.78-4.88-10.02-7-1.02-.67-1.31-2.04-.66-3.07l5.42-8.52c.32-.51.83-.86,1.42-.99.58-.12,1.2-.01,1.7.32,3.61,2.37,7.2,4.87,10.67,7.44,4.02,2.96,7.97,6.08,11.78,9.28l3.13-3.75c-3.9-3.28-7.97-6.49-12.12-9.55-5.61-4.14-11.44-8.07-17.36-11.69l-8.61,14.89c-.3.52-.79.89-1.37,1.05-.58.15-1.19.06-1.71-.24l-.43-.26c-.35-.21-.69-.41-1.04-.62-6.59-3.84-13.47-7.39-20.44-10.54-3.84-1.74-7.62-3.33-11.23-4.73-1.14-.44-1.72-1.73-1.29-2.87l3.56-9.48c.21-.56.64-1.01,1.18-1.26.55-.24,1.17-.26,1.72-.04,4.01,1.55,8.04,3.24,11.96,5.02,4.53,2.05,9.04,4.26,13.42,6.59l2.3-4.34c-4.48-2.38-9.12-4.66-13.8-6.78-6.34-2.87-12.85-5.48-19.37-7.77l-5.37,16.4c-.19.57-.59,1.04-1.12,1.3-.53.27-1.15.31-1.72.12l-.45-.15c-.39-.13-.78-.26-1.17-.39-7.23-2.36-14.68-4.38-22.15-5.99-4.11-.89-8.13-1.65-11.95-2.26-1.22-.19-2.05-1.33-1.86-2.55l1.54-10.03c.09-.59.41-1.12.89-1.47.48-.35,1.08-.5,1.67-.4,4.24.67,8.52,1.47,12.73,2.38,4.85,1.05,9.72,2.26,14.48,3.61l1.36-4.74c-4.87-1.38-9.86-2.63-14.87-3.71-6.79-1.47-13.69-2.64-20.55-3.51l-1.91,17.19c-.07.59-.36,1.13-.83,1.5-.46.37-1.06.54-1.65.48l-.53-.06c-.39-.04-.78-.09-1.17-.13-7.55-.78-15.26-1.18-22.89-1.18-4.2,0-8.29.11-12.15.32-.59.03-1.17-.17-1.62-.57-.44-.4-.71-.95-.74-1.55l-.54-10.13c-.07-1.23.88-2.29,2.11-2.35,9.23-.51,18.63-.47,27.86.12l.36-4.93c-11.89-.76-24.16-.62-36.12.43l1.65,17.23c.12,1.23-.78,2.32-2,2.44l-.52.05c-.39.04-.78.08-1.18.12-7.55.83-15.17,2.07-22.63,3.68-4.11.89-8.09,1.86-11.82,2.88-.57.16-1.19.08-1.71-.22-.52-.3-.89-.79-1.05-1.37l-2.6-9.8c-.32-1.19.39-2.41,1.57-2.73,4.14-1.14,8.37-2.18,12.58-3.09,4.86-1.05,9.8-1.95,14.71-2.69l-.65-4.89c-4.99.75-10.03,1.67-15.03,2.75-6.8,1.47-13.59,3.25-20.21,5.3l5.15,16.52c.36,1.17-.28,2.42-1.44,2.8l-.51.17c-.37.12-.74.24-1.12.36-7.22,2.41-14.41,5.23-21.39,8.38-3.84,1.74-7.54,3.53-10.98,5.31-.53.28-1.15.33-1.72.14-.57-.18-1.04-.59-1.31-1.12l-4.55-9.03c-.55-1.09-.12-2.43.97-2.99,3.82-1.99,7.75-3.9,11.68-5.68,4.55-2.06,9.2-3.99,13.85-5.74l-1.64-4.64c-4.73,1.79-9.47,3.75-14.13,5.86-6.36,2.88-12.64,6.06-18.7,9.46l8.42,15.07c.6,1.07.23,2.41-.83,3.03l-.47.27c-.34.2-.68.39-1.02.59-6.56,3.88-13.03,8.16-19.21,12.72-3.39,2.5-6.64,5.03-9.65,7.52-.46.38-1.06.56-1.65.5-.6-.06-1.14-.36-1.52-.83l-6.3-7.87c-.76-.95-.62-2.34.32-3.12,3.33-2.75,6.78-5.45,10.26-8.02,4.03-2.98,8.19-5.85,12.38-8.55l-2.54-4.19c-4.26,2.75-8.5,5.67-12.62,8.72-5.63,4.16-11.13,8.6-16.36,13.21l11.31,12.96c.8.92.72,2.31-.18,3.13l-.39.35c-.29.27-.59.53-.88.8-5.63,5.18-11.08,10.74-16.19,16.5-2.82,3.18-5.47,6.34-7.9,9.39-.37.47-.92.77-1.51.83-.6.06-1.19-.11-1.66-.49l-7.77-6.37c-.95-.77-1.09-2.17-.33-3.12,2.69-3.4,5.52-6.76,8.39-10.01,3.34-3.77,6.82-7.46,10.37-10.99l-3.33-3.55c-3.6,3.59-7.15,7.35-10.57,11.2-4.66,5.26-9.13,10.77-13.31,16.39l13.71,10.28c.98.73,1.19,2.11.47,3.1l-.29.41c-.24.33-.48.66-.72.99-4.45,6.26-8.64,12.84-12.46,19.56-2.1,3.69-4.05,7.35-5.81,10.86-.27.54-.74.94-1.31,1.13-.57.19-1.19.14-1.72-.14l-8.91-4.59c-1.09-.56-1.52-1.89-.98-2.99,1.94-3.89,4.02-7.79,6.16-11.56,2.49-4.38,5.14-8.73,7.9-12.94l-3.98-2.76c-2.79,4.27-5.5,8.7-8.05,13.2-3.48,6.13-6.73,12.46-9.66,18.84l15.51,7.16c1.11.51,1.6,1.82,1.11,2.94l-.21.47c-.17.37-.33.74-.49,1.11-3.07,7.06-5.82,14.39-8.18,21.77-1.3,4.07-2.46,8.05-3.46,11.85-.15.58-.53,1.07-1.04,1.37-.52.3-1.13.38-1.71.22l-9.65-2.61c-1.19-.32-1.89-1.54-1.58-2.73,1.1-4.21,2.33-8.46,3.66-12.61,1.54-4.82,3.25-9.63,5.08-14.32l-4.44-1.85c-1.86,4.77-3.6,9.68-5.18,14.63-2.15,6.73-4.03,13.61-5.6,20.47l16.61,3.72c1.2.27,1.96,1.45,1.7,2.65l-.11.5c-.09.4-.17.79-.25,1.19-1.56,7.56-2.75,15.3-3.55,23.03-.44,4.25-.76,8.39-.96,12.32-.03.59-.29,1.15-.73,1.55-.44.4-1.02.6-1.62.57l-9.97-.51c-1.23-.06-2.18-1.11-2.12-2.35.21-4.36.55-8.77,1-13.11.52-5.03,1.2-10.09,2.03-15.07l-4.72-.87c-.84,5.07-1.54,10.24-2.08,15.42-.73,7.04-1.16,14.15-1.29,21.19l17,.13c1.23,0,2.23,1.02,2.22,2.25v.47c0,.42,0,.84,0,1.27.02,7.72.44,15.54,1.24,23.27.44,4.25.97,8.37,1.58,12.25.19,1.22-.64,2.36-1.85,2.56l-9.86,1.61c-.59.09-1.19-.05-1.67-.4-.48-.35-.81-.88-.9-1.46-.68-4.31-1.25-8.69-1.7-13.04-.52-5.03-.89-10.12-1.09-15.16l-4.79.14c.21,5.14.59,10.36,1.12,15.54.73,7.03,1.76,14.08,3.07,20.98l16.64-3.46c.58-.12,1.19,0,1.69.32.5.33.84.84.96,1.42l.09.46c.08.41.17.83.26,1.24,1.6,7.55,3.61,15.12,5.97,22.5,1.3,4.07,2.66,7.99,4.05,11.65.44,1.15-.13,2.43-1.27,2.88l-9.32,3.66c-.56.22-1.18.2-1.72-.04-.55-.24-.97-.69-1.19-1.25-1.55-4.07-3.01-8.24-4.33-12.39-1.54-4.81-2.94-9.7-4.17-14.58l-4.66,1.15c1.26,4.99,2.69,10.01,4.28,14.97,2.15,6.71,4.6,13.38,7.29,19.86l15.56-6.9c.55-.24,1.17-.26,1.72-.04.56.22,1,.65,1.24,1.2l.19.43c.17.39.33.77.5,1.16,3.11,7.04,6.62,14.02,10.44,20.75,2.11,3.7,4.24,7.25,6.35,10.54.66,1.03.37,2.4-.65,3.07l-8.36,5.54c-.5.33-1.11.45-1.7.33-.59-.12-1.1-.48-1.42-.98-2.35-3.65-4.62-7.42-6.77-11.21-2.48-4.37-4.85-8.86-7.05-13.37l-4.33,2.12c2.25,4.62,4.69,9.23,7.25,13.75,3.47,6.11,7.23,12.11,11.19,17.87l13.81-10.03c.48-.35,1.09-.5,1.68-.4.59.1,1.12.43,1.46.92l.26.37c.25.35.49.7.74,1.04,4.48,6.23,9.35,12.32,14.46,18.08,2.82,3.18,5.63,6.2,8.37,8.97.86.87.86,2.27,0,3.14l-7.05,7.19c-.42.43-.99.67-1.59.67h0c-.6,0-1.17-.24-1.59-.67-3.05-3.08-6.05-6.29-8.92-9.53-3.32-3.74-6.55-7.63-9.63-11.58l-3.81,2.99c3.15,4.04,6.48,8.04,9.91,11.91,4.64,5.24,9.54,10.32,14.59,15.11l11.46-12.74c.4-.45.96-.71,1.56-.74.6-.02,1.18.19,1.62.59l.33.31c.31.29.62.57.93.86,5.65,5.14,11.66,10.07,17.84,14.63,3.4,2.51,6.77,4.87,10.02,7,1.02.67,1.31,2.04.66,3.07l-5.42,8.52c-.32.51-.83.86-1.42.99-.58.12-1.2.01-1.7-.32-3.61-2.38-7.21-4.88-10.67-7.44-4.02-2.97-7.97-6.08-11.78-9.29l-3.13,3.75c3.89,3.28,7.96,6.48,12.12,9.55,5.62,4.14,11.45,8.07,17.36,11.69l8.6-14.89c.3-.52.79-.89,1.37-1.05.58-.15,1.19-.06,1.71.24l.41.24c.35.21.71.42,1.07.63,6.59,3.84,13.46,7.38,20.44,10.54,3.85,1.74,7.62,3.33,11.23,4.73,1.14.44,1.72,1.72,1.29,2.87l-3.56,9.48c-.21.56-.64,1.01-1.18,1.26-.55.24-1.17.26-1.72.04-4.01-1.55-8.03-3.24-11.96-5.02-4.53-2.05-9.04-4.26-13.42-6.59l-2.3,4.34c4.48,2.38,9.11,4.66,13.8,6.78,6.33,2.87,12.84,5.48,19.37,7.77l5.38-16.4c.19-.57.59-1.04,1.12-1.3.53-.27,1.15-.31,1.72-.12l.53.18c.36.12.73.25,1.09.36,7.23,2.36,14.68,4.38,22.15,5.99,4.11.89,8.13,1.65,11.95,2.26,1.22.19,2.05,1.33,1.86,2.55l-1.54,10.03c-.09.59-.41,1.12-.89,1.47-.48.35-1.08.5-1.67.4-4.25-.67-8.53-1.48-12.73-2.38-4.85-1.05-9.72-2.26-14.48-3.61l-1.36,4.74c4.86,1.38,9.85,2.63,14.87,3.71,6.79,1.47,13.69,2.64,20.55,3.51l1.91-17.19c.07-.59.36-1.13.83-1.5.46-.37,1.06-.54,1.65-.48l.44.05c.42.05.84.1,1.26.14,7.56.78,15.26,1.18,22.89,1.18,4.21,0,8.3-.11,12.15-.32.59-.03,1.17.17,1.62.57.44.4.71.95.74,1.55l.54,10.13c.07,1.23-.88,2.29-2.11,2.35-9.21.51-18.63.47-27.86-.12l-.36,4.93Z"/>
      </g>
      <g>
        <g>
          <path class="cls-2" d="m144,260.94c0,5.58.44,10.98,3.17,16.99.4.88-.39.97-.91.75-7.22-3.07-15.77-10.07-18.55-14.88,4.55,1.8,11.07-.4,16.29-2.86Z"/>
          <path class="cls-2" d="m157.4,252.57c-1.57,4.32-1.51,10.92.18,16.53.31,1.03-.57.93-1.04.62-4.74-3.06-7.2-5.85-9.1-10.19,4.23-2.38,6.81-5.07,9.96-6.96Z"/>
          <path class="cls-2" d="m172.48,298.47c-5.43-3.75-9.74-8.73-13.13-13.33-.54-.73-1.07-.47-1.12.46-.35,6.43,1.25,12.82,4.28,16.78,2.56-1.59,6.13-3.25,9.96-3.91Z"/>
          <path class="cls-2" d="m192.71,290.08c-5.77-2.16-13.86-6.06-19.72-12.26-.69-.73-1.3-.42-1.24.6.36,6.19,2.25,13.23,5.67,18.41,5.38-1.45,11.59-4.54,15.3-6.74Z"/>
        </g>
        <path class="cls-2" d="m412.39,268.51c9.5,21.35,12.59,42.67,13.89,63.95,0,0,17.08-7.86,39.25.78-20.53-25.87-24.55-57.88-53.15-64.73Zm12.88,20.08c-3.7-1.72-3.33-6.52-.86-5.82,5.39,1.54,12.58,11.12,14.99,15.74,3.66,7.01,9.7,16.4,13.93,21.16-7.43-5.69-11.21-11.83-15.52-18.29-4.06-6.08-9.11-11.19-12.54-12.78Zm18.05,30.75c-3.7-3.44-8.67-6.39-11.63-7.29-2.96-.9-2.52-4.65-.34-4.29,4.76.79,9.05,5,12.54,8.55,2.24,2.28,6.96,8.24,12.12,11.48-6.48-2.31-10.7-6.61-12.7-8.46Z"/>
        <path class="cls-2" d="m421.24,449.31c-2.68-.83-7.39-7.56-3.71-5.79,5.22,2.51,11.37,3.97,18.91,3.37,2.66-.21,4.17-.35,6.65-.06,3.41-2.87,6.58-6.53,9.12-9.25-9.52-9.17-16.19-3.39-27.11-8.01-10.4-4.41-18.51-18.87-17.46-34.91-9.17,12.34-11.42,25.92-8.82,35.09,3.56,12.55,18.43,24.29,31.52,28.26,2.86-2.25,6.1-5.23,10.33-8.68-1.36.12-1.9.12-3.44.33-6.37.88-9.91,1.53-16.01-.34Zm-18.12-27.68c-.85-2.42,1.92-8.29,3.04-4.36,1.04,3.64,3.92,12.43,12.05,16,6.97,3.06,15.95,2.86,24.31,4.63-8.45-.06-19.1,1.63-26.8-2.22-5.36-2.68-10.22-7.3-12.61-14.04Z"/>
        <path class="cls-2" d="m426.72,340.31c-1.99,17.36-7.3,33.29-16.6,49.23,8.73,9.08,24.03,22.18,37.78,26.41-5.5-17.39-2.35-65.35-21.18-75.64Zm3.69,20.46c4.31,3.58,7.05,15.24,7.4,20.43.53,7.89.8,15.65,4.25,24.97-4.52-8.19-5.26-14.73-6.33-22.42-.96-6.9-4.36-14.47-6.87-17.31-2.7-3.06-.42-7.31,1.55-5.67Zm-1.09,35.25c-2.55-4.36-6.45-8.62-9.02-10.34-2.57-1.72-1.07-5.18.92-4.2,4.33,2.13,6.83,8.01,9.14,12.42,1.49,2.83,4.66,9.31,8.66,13.91-5.53-4.09-8.33-9.43-9.7-11.78Z"/>
        <path class="cls-2" d="m381.25,230.79c10.05,5.29,20.01,17.46,27.59,30.86,1.41-8.29,12.34-13.75,22.22-11.81-12.7-13.93-34.47-22.13-49.81-19.04Zm28.13,11.3c-2.81-.33-6.74.26-8.51.57-2.51.44-4.2-3.04-2.16-3.66,3.35-1.01,6.44-.88,10.58.04,4.85,1.08,10.01,4.32,13.71,7.14-5.42-2.29-9.43-3.61-13.62-4.1Z"/>
        <g>
          <path class="cls-2" d="m297.8,374.56c-.51,1.32-.81,2.69-.91,4.07,7.51.44,13.89,4.95,16.33,11.46,2.44-6.51,8.82-11.02,16.33-11.46-.54-7.94-7.63-14.11-16.33-14.11-1.9,0-3.8.31-5.63.94l-.77.26c-2.76,2.71-5.71,5.4-8.74,8.12l-.28.73Z"/>
          <path class="cls-2" d="m294.54,378.61c-.03-.44-.1-.92-.2-1.45-.63.56-1.27,1.13-1.91,1.7.71-.12,1.41-.21,2.11-.25Z"/>
          <path class="cls-2" d="m277.03,394.71c-.03-.4-.09-.83-.17-1.3-.48.49-.95.98-1.42,1.48.55-.08,1.09-.14,1.6-.17Z"/>
          <path class="cls-2" d="m280.41,390.4c-.57,1.41-.92,2.85-1.02,4.31,7.45.43,13.84,4.87,16.33,11.26,2.49-6.39,8.88-10.83,16.33-11.26-.55-7.94-7.64-14.1-16.33-14.1-1.97,0-3.92.33-5.8.99l-.91.32c-2.77,2.49-5.54,5.02-8.25,7.64l-.35.85Z"/>
          <path class="cls-2" d="m330.72,245.24c2.44-6.51,8.82-11.02,16.33-11.46-.21-3.04-1.41-5.92-3.49-8.35l-.12-.14c-.42.12-.84.24-1.25.38-6.17,2.12-12.31,6.52-16.55,12.5l.05.04c2.3,1.94,4.02,4.35,5.03,7.03Z"/>
          <path class="cls-2" d="m278.21,422.06c2.49-6.39,8.88-10.83,16.33-11.26-.55-7.94-7.64-14.1-16.33-14.1-1.54,0-3.09.2-4.59.61l-.61.16c-3.82,4.2-7.37,8.64-10.43,13.4,7.11.66,13.23,5.08,15.63,11.19Z"/>
          <path class="cls-2" d="m312.04,362.52c-.04-.61-.15-1.24-.29-1.91-.67.74-1.37,1.47-2.07,2.2.79-.14,1.59-.25,2.36-.3Z"/>
          <path class="cls-2" d="m329.54,346.44c-.18-2.61-1.11-5.13-2.68-7.33-1.52,3.23-3.4,6.47-5.64,9.73,2.53-1.4,5.38-2.23,8.33-2.4Z"/>
          <path class="cls-2" d="m329.5,307.09c.48.82.88,1.67,1.21,2.53,2.43-6.51,8.82-11.02,16.33-11.46-.54-7.94-7.63-14.11-16.33-14.11-4.61,0-9.04,1.82-12.14,5l-.03.03c5.06,6.2,8.55,12.24,10.6,18.18l.36-.16Z"/>
          <path class="cls-2" d="m365.72,444.98c-8.69,0-15.78,6.16-16.33,14.1,7.45.43,13.83,4.87,16.33,11.26,2.49-6.39,8.88-10.83,16.32-11.26-.55-7.94-7.64-14.1-16.32-14.1Z"/>
          <path class="cls-2" d="m420.68,461.21l-1.41-.09c-.35-.02-.69-.05-1.04-.05-8.7,0-15.79,6.17-16.33,14.11.79.05,1.6.15,2.42.29l.5.09c7-4.01,13.64-8.36,19.77-13.03-1.34-.4-2.63-.85-3.9-1.33Z"/>
          <path class="cls-2" d="m348.22,461.07c-8.69,0-15.78,6.16-16.33,14.1,7.45.43,13.83,4.87,16.33,11.26,2.49-6.39,8.88-10.83,16.33-11.26-.55-7.94-7.64-14.1-16.33-14.1Z"/>
          <path class="cls-2" d="m253.97,430.02l.14.09c3.03,2.02,5.34,4.84,6.6,8.04,2.49-6.39,8.88-10.83,16.33-11.26-.53-7.63-7.09-13.65-15.44-14.06h-.22c-2.52,4.16-4.66,8.59-6.29,13.33-.43,1.25-.8,2.55-1.11,3.86Z"/>
          <path class="cls-2" d="m252.81,444.58c2.13-.92,4.38-1.46,6.72-1.59-.29-4.19-2.48-8.07-6.04-10.74-.74,3.95-.98,8.12-.68,12.33Z"/>
          <path class="cls-2" d="m277.04,459.08c-.55-7.94-7.64-14.1-16.33-14.1-2.66,0-5.2.57-7.55,1.71l-.15.07c.89,7.67,3.59,15.39,8.37,22.12,2.9-5.68,8.85-9.41,15.66-9.8Z"/>
          <path class="cls-2" d="m327.83,336.92l.14.17c1.19,1.45,2.11,3.03,2.75,4.72,2.44-6.51,8.82-11.02,16.33-11.46-.53-7.73-7.42-13.87-15.87-14.09.73,6.93-.45,13.79-3.34,20.66Z"/>
          <path class="cls-2" d="m366.9,249.87c7.45.43,13.84,4.87,16.33,11.26,1.8-4.58,5.72-8.31,10.7-10.11-4.2-5.59-8.94-10.63-14.21-14.9l-.35.08c-6.94,1.55-12.02,7.13-12.47,13.66Z"/>
          <path class="cls-2" d="m383.22,396.7c-8.69,0-15.78,6.16-16.33,14.1,7.45.43,13.83,4.87,16.33,11.26,1.13-2.89,3.09-5.44,5.72-7.42l.35-.26c.46-2.31,1.16-4.6,2.14-6.85,1.03-2.38,2.04-4.59,3.03-6.69l-.08-.07c-3.04-2.62-7-4.06-11.15-4.06Z"/>
          <path class="cls-2" d="m401.9,378.62c1.21.07,2.44.26,3.67.57l.1.02c2.26-4.26,4.51-8.65,6.81-13.72-5.98,2.08-10.17,7.27-10.58,13.13Z"/>
          <path class="cls-2" d="m418.22,332.33c-8.7,0-15.79,6.17-16.33,14.11,6.2.37,11.86,3.64,14.93,8.63,2.13-5.91,3.21-13.74,3.21-22.65h-.04c-.62-.07-1.2-.1-1.77-.1Z"/>
          <path class="cls-2" d="m400.72,348.42c-8.69,0-15.78,6.16-16.32,14.1,7.45.43,13.83,4.87,16.32,11.26,2.02-5.16,6.73-9.2,12.55-10.67l.3-.08c.74-1.7,1.49-3.48,2.25-5.36l-.16-.33c-2.64-5.42-8.5-8.92-14.93-8.92Z"/>
          <path class="cls-2" d="m351.06,224.25c-1.8.02-3.57.18-5.27.5,1.03,1.31,1.85,2.72,2.43,4.2.66-1.69,1.62-3.26,2.84-4.7Z"/>
          <path class="cls-2" d="m384.4,459.08c7.45.43,13.83,4.87,16.32,11.26,2.35-5.99,8.28-10.35,15.21-11.14-7.44-3.54-13.6-8.38-18.17-13.99l-.19.05c-7.34,1.32-12.7,6.97-13.18,13.82Z"/>
          <path class="cls-2" d="m383.22,428.88c-8.69,0-15.78,6.16-16.33,14.1,7.45.43,13.84,4.87,16.33,11.26,2.1-5.39,7.05-9.47,13.17-10.81-3.03-4.12-5.24-8.6-6.51-13.24l-.26-.1c-2.04-.8-4.19-1.21-6.4-1.21Z"/>
          <path class="cls-2" d="m389.33,427.82c-.68-3.38-.87-6.81-.53-10.24-2.6,2.56-4.16,5.83-4.41,9.31,1.68.1,3.33.41,4.93.93Z"/>
          <path class="cls-2" d="m384.4,394.71c4.04.24,7.92,1.71,11,4.16,3.23-6.69,6.27-12.2,9.27-17.8-1.33-.31-2.66-.46-3.95-.46-8.69,0-15.78,6.16-16.32,14.1Z"/>
          <path class="cls-2" d="m384.4,265.96c7.45.43,13.83,4.87,16.32,11.26.99-2.53,2.63-4.82,4.79-6.67l.1-.08c-2.99-6.24-6.45-12.21-10.41-17.71l-.14.05c-6.1,2.08-10.25,7.22-10.66,13.16Z"/>
          <path class="cls-2" d="m347.04,459.09c-.54-7.94-7.63-14.11-16.33-14.11s-15.79,6.17-16.33,14.11c7.5.44,13.89,4.95,16.33,11.46,2.44-6.51,8.82-11.02,16.33-11.46Z"/>
          <path class="cls-2" d="m419.92,330.39h.09c-.02-.98-.05-1.97-.09-2.98-.28.96-.45,1.94-.52,2.94.17.01.35.03.52.04Z"/>
          <path class="cls-2" d="m349.4,233.77c7.45.43,13.84,4.87,16.33,11.26,1.95-4.97,6.42-8.92,11.95-10.51-2.67-2.01-5.47-3.83-8.41-5.41-4.54-2.74-9.99-4.38-15.34-4.78l-.25.25c-2.52,2.54-4.03,5.79-4.27,9.19Z"/>
          <path class="cls-2" d="m401.9,314.25c7.51.44,13.89,4.95,16.33,11.46.3-.8.68-1.6,1.12-2.37l.29-.51c-.57-7.19-1.76-14.82-3.6-22.55h-.05c-7.74.98-13.61,6.82-14.1,13.96Z"/>
          <path class="cls-2" d="m411.71,285.39c-1.51-4.36-3.22-8.69-5.16-12.9-2.76,2.6-4.41,5.98-4.66,9.58,3.57.21,6.94,1.36,9.81,3.32Z"/>
          <path class="cls-2" d="m400.72,284.05c-8.69,0-15.78,6.16-16.32,14.1,7.45.43,13.83,4.87,16.32,11.26,2.3-5.9,8-10.2,14.83-11.11-.77-3.06-1.64-6.14-2.61-9.2l-.55-.52c-3.11-2.93-7.25-4.54-11.67-4.54Z"/>
          <path class="cls-2" d="m349.4,330.33c7.45.43,13.83,4.87,16.33,11.26,2.49-6.39,8.88-10.83,16.32-11.26-.55-7.94-7.64-14.1-16.32-14.1s-15.78,6.16-16.33,14.1Z"/>
          <path class="cls-2" d="m331.89,410.8c7.45.43,13.83,4.87,16.33,11.26,2.49-6.39,8.88-10.83,16.33-11.26-.55-7.94-7.64-14.1-16.33-14.1s-15.78,6.16-16.33,14.1Z"/>
          <path class="cls-2" d="m364.54,282.05c-.55-7.94-7.64-14.1-16.33-14.1s-15.78,6.16-16.33,14.1c7.45.43,13.83,4.87,16.33,11.26,2.49-6.39,8.88-10.83,16.33-11.26Z"/>
          <path class="cls-2" d="m383.22,332.33c-8.69,0-15.78,6.16-16.33,14.1,7.45.43,13.83,4.87,16.33,11.26,2.49-6.39,8.88-10.83,16.32-11.26-.55-7.94-7.64-14.1-16.32-14.1Z"/>
          <path class="cls-2" d="m364.54,314.24c-.55-7.94-7.64-14.1-16.33-14.1s-15.78,6.16-16.33,14.1c7.45.43,13.83,4.87,16.33,11.26,2.49-6.39,8.88-10.83,16.33-11.26Z"/>
          <path class="cls-2" d="m348.22,357.69c2.49-6.39,8.88-10.83,16.33-11.26-.55-7.94-7.64-14.1-16.33-14.1s-15.78,6.16-16.33,14.1c7.45.43,13.83,4.87,16.33,11.26Z"/>
          <path class="cls-2" d="m366.9,378.61c7.45.43,13.83,4.87,16.33,11.26,2.49-6.39,8.88-10.83,16.32-11.26-.55-7.94-7.64-14.1-16.32-14.1s-15.78,6.16-16.33,14.1Z"/>
          <path class="cls-2" d="m347.04,362.53c-.54-7.94-7.63-14.11-16.33-14.11s-15.79,6.17-16.33,14.11c7.5.44,13.89,4.95,16.33,11.46,2.44-6.5,8.82-11.02,16.33-11.46Z"/>
          <path class="cls-2" d="m386.42,484.97c5.29-2.4,10.46-5,15.47-7.76-.4-.03-.79-.05-1.16-.05-6.02,0-11.42,2.97-14.31,7.8Z"/>
          <path class="cls-2" d="m366.9,314.24c7.45.43,13.83,4.87,16.33,11.26,2.49-6.39,8.88-10.83,16.32-11.26-.55-7.94-7.64-14.1-16.32-14.1s-15.78,6.16-16.33,14.1Z"/>
          <path class="cls-2" d="m383.28,486.29c2.56-6.36,8.91-10.69,16.26-11.12-.55-7.94-7.64-14.1-16.32-14.1s-15.78,6.16-16.33,14.1c7.32.43,13.8,4.89,16.3,11.23.02,0,.03-.01.05-.02l.04-.09Z"/>
          <path class="cls-2" d="m366.9,282.05c7.45.43,13.83,4.87,16.33,11.26,2.49-6.39,8.88-10.83,16.32-11.26-.55-7.94-7.64-14.1-16.32-14.1s-15.78,6.16-16.33,14.1Z"/>
          <path class="cls-2" d="m364.54,249.87c-.55-7.94-7.64-14.1-16.33-14.1s-15.78,6.16-16.33,14.1c7.45.43,13.83,4.87,16.33,11.26,2.49-6.39,8.88-10.83,16.33-11.26Z"/>
          <path class="cls-2" d="m333.32,502.17c8-1.62,16.12-3.7,24.19-6.21-2.73-1.74-5.97-2.7-9.29-2.7-6.52,0-12.3,3.6-14.89,8.91Z"/>
          <path class="cls-2" d="m349.4,265.96c7.45.43,13.83,4.87,16.33,11.26,2.49-6.39,8.88-10.83,16.32-11.26-.55-7.94-7.64-14.1-16.32-14.1s-15.78,6.16-16.33,14.1Z"/>
          <path class="cls-2" d="m347.04,491.28c-.54-7.94-7.63-14.11-16.33-14.11s-15.79,6.17-16.33,14.11c7.49.44,13.85,4.93,16.31,11.41.01,0,.03,0,.04,0,2.45-6.47,8.82-10.96,16.3-11.4Z"/>
          <path class="cls-2" d="m170.99,230.51c18.98-10.69,49.84-12.32,86.91-9.77,41,2.82,96.37-28.47,112.14-44.43,20.9-21.15,42.89-33.05,67.9-25.3-23.72-10.74-49.52,1.64-69.58,21.24-16.05,15.69-73.44,45.67-110.47,42.49-37.03-3.17-72.87-3.95-93.96,8.52-1.33.79-2.25,1.72-2.71,3.6-.46-2.61.82-4.97,2.85-6.38,19.13-13.31,56.7-11.35,93.78-8.95,28.56,1.85,60.49-10.45,85.16-24.33-11.09-5.66-18.65-8.96-30.2-9.58-10.27,7.32-20.14,12.67-32.77,11.34,13.07-.44,31.06-13.31,38.48-23.2-5.49.96-10.38,1.36-15.67.31,23.16-5.79,42.86-15.61,57.44-26.21,11.24-8.17,16.36-14.29,23.45-26.18,3.6-6.04.56-7.9-3.97-3.35-4.01,4.03-8.32,7.1-12.7,10.23-11.37,8.11-23.54,13.22-35.44,16.66,3.32-4.83,6.99-14.81,7.43-20.72.16-2.18-1.46-2.02-2.36-.28-3.42,6.6-13.17,15.62-23.41,21-17.1,8.99-33.76,13.65-60.91,18.26,7.74-2.44,12.47-2.69,22.29-9.05,13.38-8.66,25.2-24.59,31.34-37.69,1.98-4.23-1.37-4.45-3.04-2.25-6.83,8.99-23.09,24.33-32.39,28.31,2.98-4.63,4.1-13.76,3.37-20.61-.18-1.72-1.72-1.75-2.3-.07-2.14,6.25-5.59,14.21-8.52,17.79-3.72,4.55-18.61,15.72-26.88,21.51-7.67,0-22.22,8.89-26.22,13.89-4,5-6.67,8.67-11,8.67s-13.33,9.67-13.67,15.67c-1.82.76-4.85,2.27-6.7,3.15,1.23,3.09,2.29,6.17,2.82,11.11-2.56-4.06-5.07-6.96-7.31-8.94-2.22,1.15-4.33,2.28-6.22,3.3,1.85,3.24,3.17,7.47,3.7,10.98-1.59-2.58-4.76-6.68-7.49-9.03-2.98,1.65-5.33,2.98-6.72,3.68,2.45,3.11,4.23,7.01,4.36,10.71-2.05-4.1-4.1-6.68-7.01-9.39-3.31,1.33-8.18,2.44-12.76,2.44-6.33,0-19.67,0-26.67,5.67-7,5.67-9,14.33-6.33,18.67-1,4.67-2,16,4,20.67,6,4.67,12.53,6.98,19.47,6.22,5.94-.65,13.8-5.08,20.89-9.26,8.99-5.29,23.86-3.69,33.86-5.03,10-1.33,22.97-3.38,33.59-10.32,7.2-4.7,23.67-9.09,27.24-6.35,4.9,3.76.92,7.89-7.93,14.28-9.52,6.88-18.06,12.56-25.39,20.89-7.33,8.33-11.12,20.46-20.1,26.58-9.12,6.22-22.8,8.73-27.77,10.8-8.46,3.53-9.96,10.58-4.76,14.99-.71,5.82,3.57,12.51,9.57,15.51,6,3,17,5.67,18.67,11.67,2.33-5,2.33-9.67-.67-14.33,5,1.67,16.33,9,17,16,4.67-8.67,5-16.33.67-23.33,11.67,5.33,14.33,6.67,16,10.67-.33-8-5.33-17.33,0-22.67,5.33-5.33,13.33-16,22.33-16.33-4.33-5.67-.03-13.35,8.7-16.61,8.2-3.06,19.4-6.08,30.97-5.38,9.01.54,19.33,6.67,35-4-12.58,12.06-27.19,9.26-34.01,8.88-5.33-.29-12.12.5-15.96,1.94,5.64,3.53,9.97,10,11.68,16.97.66,2.71.83,5.29.54,7.77,7.26,2.11,17.45,4.49,27.5,3.44-10.45,3.44-19.52,3.53-28.98,2.25-2.91,7.11-9.59,13.69-18.86,20.83,5.36.6,22.76,10.6,44.04,10.76-21.54,3.12-39.59-2.75-50.18-6.13-5.6,4.27-14.78,13.48-21.81,20.27,14.9,6.44,33.41,12.26,43.99,13.58-14.28,0-35.86-3.84-48.61-8.93-8.04,8.44-13.51,14.82-18.62,26.27,5.75.87,27.08,11.29,43.18,12.13-15.83,1.62-34.78-2.29-45.53-6.24-1.97,5.59-3.29,11.49-3.76,17.68-.36,4.79-.28,9.59.25,14.36,9.76,3.24,24.66,4.39,32.77,3.86-11.2,3.09-23.35,4.17-31.6,3.5,2.17,10.43,6.5,20.55,12.95,29.84,11.68.78,22.09-.19,31.47-2.72-8.86,4.99-18.75,7.19-27.39,8.14,6.06,7.43,13.34,13.83,21.97,19.14,8.29.28,15.78-.69,20.01-2.45-4.06,3.35-10.05,5.11-14.82,5.43,17.06,9.1,38.89,14.41,66.39,15.64,3.79-.48,7.64-1.07,11.51-1.77-2.33-5.83-8.34-9.83-15.32-9.83-5.4,0-10.45,2.46-13.51,6.59l-.21.28-1.9-1.1.27-.36c3.22-4.32,8.5-7.07,14.17-7.41-.55-7.94-7.64-14.1-16.33-14.1-6.73,0-12.86,3.9-15.27,9.71l-.2.48-.41-.32c-.28-.22-.56-.44-.84-.66l-.56-.44.13-.29c2.72-5.99,8.96-10.07,15.98-10.48-.55-7.94-7.64-14.1-16.33-14.1-6.78,0-12.76,3.77-15.23,9.61l-.09.22c1.53,1.92,3.24,3.74,5.14,5.45-16.47-13.43-24.63-37.23-19.29-52.84,9.96-29.09,39.37-46.46,56.99-65.89,21.64-23.87,25.75-46.53,12.61-68.34l-.07.07-.47-.57c-.21-.26-.42-.51-.64-.77l-.24-.28.26-.26s.01-.01.02-.02c-.01-.02-.03-.05-.04-.07.02.02.03.04.05.06,3.25-3.21,7.61-5.11,12.34-5.39-.35-5.07-3.54-9.72-8.39-12.21l-.39-.2.48-.73c.15-.23.3-.46.46-.7l.2-.29.31.16c3.97,2.04,7.02,5.4,8.51,9.34,2.44-6.51,8.82-11.02,16.33-11.46-.54-7.95-7.63-14.11-16.33-14.11-3.28,0-6.46.9-9.18,2.61l-.13.08-.15-.03c-.57-.11-1.15-.24-1.73-.38l-.85-.2.71-.51c2.95-2.11,6.45-3.34,10.16-3.55-.26-3.79-2.05-7.32-5.07-9.96-3.57,5.65-8.78,9.04-15.78,9.21,6.33-2,10.71-4.92,14.04-11.4,3.09-6,7.74-11.53,14.1-14.47,8.83-4.08,24.1-5.82,36.8,1.94-9.17-7.58-9.79-16.75-14.28-18.69-14.81,0-28.74,4.76-36.33,9.79-4.21,2.79-12.37,7.76-15.58,13.73,2.33-5.67,6.99-10.79,13.17-15.21,9.46-6.77,27.55-12.34,46.63-12.42-4.54-4-9.05-7.09-14.41-9.99-24.13,15.46-59.25,32.44-94.16,30.94-37.13-1.59-66.31-.79-85.25,9.96-2.13,1.21-7.76,2.2-9.83-1.2,1.53.84,5.25-.39,7.42-1.61Zm41.35-26.92c-5.63,0-10.68-5.45-11.39-10.56.74-2.16,2.45-4.15,4.59-5.58-.5,1.2-.62,2.92-.22,4.76.69,3.13,2.62,5.37,4.32,5,1.7-.37,2.52-3.21,1.83-6.35-.53-2.41-1.8-4.29-3.12-4.86,2.04-.76,4.23-1.01,6.26-.49,3.96,1.01,7.13,3.44,11.16,3.61-2.35,2.77-2.68,4.9-3.61,7.88-1.09,3.52-4.19,6.59-9.82,6.59Zm24.34-14.31c-2.13,1.52-4.23,2.56-6.35,3.97-2.12,1.41-2.77,4.29-5.06,6.58,1.41-2.12,1.58-4.18,2.7-6.18,1.14-2.02,3.2-3.39,4.28-4.07,1.98-1.26,2.58-2.41-.22-2.46-2.65-.04-6.17-1.23-10.93-2.29,4.06.53,10.76-.35,14.46-.71,3.7-.35,4.36,2.84,1.12,5.16Zm75.58-4.1c-7.67,11.28-26.27,15.25-30.15,21.95-4.14.71-8.11.79-12.87,1.32,8.99-9.43,32.36-12.78,43.02-23.27Zm-56.07,8.46c-4.94,3.94-8.2,9.61-9.35,14.28-1.76,0-5.99-.18-9.08-.35,3.17-4.41,8.05-11.18,12.43-14.28,7.85-5.55,24.95-11.37,34.91-11.81-9.7,2.47-22.83,7.32-28.92,12.17Zm41.13-26.18c-11.11,3.57-25.66,4.36-33.59,4.36,6.61-1.32,23.41-7.93,26.85-9.52-1.85,2.12-6.48,4.5-9.26,5.69,3.44.26,10.71.53,16-.53Zm-44.13,8.25c-3.47,3.06-7.57,4.2-12.57,4.87,3.48-1.62,5.91-3.26,9.65-5.98,3.74-2.72,13.01-8.2,17.33-9.28-5.72,3.33-11.1,7.48-14.41,10.39Zm-41.96-1.31c-.35,1.15-.53,1.52-.49,2.38,2.34-3.11,8.45-2.53,14.97-8.99-.12,1.43-2.23,4.43-6.19,7.6,5.91-3.97,9.63-7.64,14.92-9.98-.46,2.12-.93,2.84-2.71,4.56,1.73-1.25,7.52-2.16,11.75-4.87-.36,3.36-2.72,5.72-6.44,9.1,5.13-2.11,9.13-4.09,19.09-11.19-4.4,7.89-10.84,12.93-19.34,14.83-3.32.74-7.73,2.01-11.03,4.32,1.65-2.86,5.75-6.08,7.65-7.62-6.11,3.38-10.14,4.74-13.48,5.75-2.72.83-7.26,1.76-10.34.11-5.28,1.2-11,6.93-13.7,10.6.93-5.95,9.65-13.07,15.34-16.6Zm-32.66,158.76c-2.52-.48.53-2.96,2.74-2.58,4.3.73,7.38,4.94,8.37,10.06-1.98-3.64-6.28-6.55-11.11-7.47Zm28.45,7.2c-.76-4.07-4.89-10.55-9.19-12.92-2.25-1.24,1.4-3.3,3.39-2.25,3.86,2.02,6.53,9.4,5.81,15.18Zm15.27-10.03c-2.25-3.7-5.43-6.73-9.38-9.3-2.15-1.4.76-3.62,2.6-2.33,2.82,1.98,5.29,6.96,6.79,11.63Zm-14.2-32.78c-6.55,6.72-15.08,7.9-22.92,9.84-9.5,2.35-17.01,4.76-20.1,7.54,1.85-4.72,11-7.95,18.16-10.01,8.9-2.56,17.63-7.32,21.69-11.9,5.08-5.74,8.99-13.93,12.34-19.13,2.1-3.27,5.02-6.08,8.64-7.23-10.05,9.26-10.45,23.34-17.81,30.89Zm14.2,5.81c7.05-9.35,16.05-19.4,19.22-28.04,2.17,12.68-8.11,19.57-19.22,28.04Zm101.78-43.26c-15.6,5.47-30.75.29-37.03-1.41-10.76-2.91-25.04-1.23-37.73,7.41,6.17-10.05,21.58-18.26,35.79-13.22,12.7,4.5,29.09,8.99,38.97,7.23Zm-28.48-24.02c8.46,0,19.84-2.51,24.86-6.48-7.37,8.05-15.86,12.74-23.87,11.33-7.12-1.25-17,.04-25.73,3.75,7.8-8.33,16.27-8.6,24.73-8.6Zm-41.39-10.95c1.85.26,4.32.62,6.61.62,2.96,2.09,5.46,5.45,5.42,9.31-.09,9.61-9.3,15.46-21.69,19.16,10.98-5.2,15.25-12.03,15.01-16.99-.24-4.96-1.3-9.46-5.36-12.1Zm-36.23,1.29c1.23-.26,2.84-.6,5.16-.73,2.64.46,3.97,2.05,1.79,2.45-2.12.39-5.03,2.12-9.32,4.83-3.46,2.18-9.98,5.09-19.09,6.41,8.64-2.73,17.83-8.33,21.47-12.96Zm-83.91-10.43c3.74,3.96,5.23,9.5,4.3,18.5-1.45-6.88-5.03-10.32-7.01-12.96-1.98-2.64-7.67-7.27-11.37-5.55,3.44-4.23,10.34-3.94,14.08.02Zm-14.61,10.26c1.92-.18,5.69,4.61,6.69,8.69.94,3.85-.39,5.93-2.31,6.08-3,.23-5.47-2.42-6.23-6.31-.76-3.89-.61-8.23,1.85-8.46Zm62.55,15.28c-13.89.26-25.13.66-36.23,6.35-9.45,4.84-23.06,9.66-31.41,2.98,9.15,3.64,20.56-2.09,29.79-7.33,11.28-6.41,22.52-4.24,37.86-1.99Z"/>
          <path class="cls-2" d="m365.72,477.17c-8.69,0-15.78,6.16-16.33,14.1,3.9.23,7.63,1.6,10.65,3.89,7.13-2.3,14.2-4.93,21.11-7.87-2.29-6.06-8.46-10.12-15.43-10.12Z"/>
          <path class="cls-2" d="m349.4,426.89c7.45.43,13.83,4.87,16.33,11.26,2.49-6.39,8.88-10.83,16.32-11.26-.55-7.94-7.64-14.1-16.32-14.1s-15.78,6.16-16.33,14.1Z"/>
          <path class="cls-2" d="m349.4,362.52c7.45.43,13.83,4.87,16.33,11.26,2.49-6.39,8.88-10.83,16.32-11.26-.55-7.94-7.64-14.1-16.32-14.1s-15.78,6.16-16.33,14.1Z"/>
          <path class="cls-2" d="m313.22,422.27c2.44-6.51,8.82-11.02,16.33-11.46-.54-7.94-7.63-14.11-16.33-14.11s-15.79,6.17-16.33,14.11c7.51.44,13.89,4.95,16.33,11.46Z"/>
          <path class="cls-2" d="m348.22,454.25c2.49-6.39,8.88-10.83,16.33-11.26-.55-7.94-7.64-14.1-16.33-14.1s-15.78,6.16-16.33,14.1c7.45.43,13.83,4.87,16.33,11.26Z"/>
          <path class="cls-2" d="m331.89,378.61c7.45.43,13.83,4.87,16.33,11.26,2.49-6.39,8.88-10.83,16.33-11.26-.55-7.94-7.64-14.1-16.33-14.1s-15.78,6.16-16.33,14.1Z"/>
          <path class="cls-2" d="m312.04,459.08c-.55-7.94-7.64-14.1-16.33-14.1s-15.78,6.16-16.33,14.1c7.45.43,13.84,4.87,16.33,11.26,2.49-6.39,8.88-10.83,16.33-11.26Z"/>
          <path class="cls-2" d="m294.54,442.99c-.55-7.94-7.64-14.1-16.33-14.1s-15.78,6.16-16.33,14.1c7.45.43,13.83,4.87,16.33,11.26,2.49-6.39,8.88-10.83,16.33-11.26Z"/>
          <path class="cls-2" d="m295.71,438.15c2.49-6.39,8.88-10.83,16.33-11.26-.55-7.94-7.64-14.1-16.33-14.1s-15.78,6.16-16.33,14.1c7.45.43,13.84,4.87,16.33,11.26Z"/>
          <path class="cls-2" d="m313.22,428.88c-8.7,0-15.79,6.17-16.33,14.11,7.51.44,13.89,4.95,16.33,11.46,2.44-6.51,8.82-11.02,16.33-11.46-.54-7.95-7.63-14.11-16.33-14.11Z"/>
          <path class="cls-2" d="m313.22,461.07c-8.7,0-15.79,6.17-16.33,14.11,7.51.44,13.89,4.95,16.33,11.46,2.44-6.51,8.82-11.02,16.33-11.46-.54-7.95-7.63-14.11-16.33-14.11Z"/>
          <path class="cls-2" d="m382.05,298.15c-.55-7.94-7.64-14.1-16.32-14.1s-15.78,6.16-16.33,14.1c7.45.43,13.83,4.87,16.33,11.26,2.49-6.39,8.88-10.83,16.32-11.26Z"/>
          <path class="cls-2" d="m347.04,426.9c-.54-7.94-7.63-14.11-16.33-14.11s-15.79,6.17-16.33,14.11c7.5.44,13.89,4.95,16.33,11.46,2.44-6.51,8.82-11.02,16.33-11.46Z"/>
          <path class="cls-2" d="m330.72,406.18c2.44-6.51,8.82-11.02,16.33-11.46-.54-7.95-7.63-14.11-16.33-14.11s-15.79,6.17-16.33,14.11c7.5.44,13.89,4.95,16.33,11.46Z"/>
          <path class="cls-2" d="m384.4,330.33c7.44.43,13.83,4.87,16.32,11.26,2.49-6.39,8.88-10.83,16.33-11.26-.55-7.94-7.64-14.1-16.33-14.1s-15.78,6.16-16.32,14.1Z"/>
          <path class="cls-2" d="m365.72,380.6c-8.69,0-15.78,6.16-16.33,14.1,7.45.43,13.83,4.87,16.33,11.26,2.49-6.39,8.88-10.83,16.32-11.26-.55-7.94-7.64-14.1-16.32-14.1Z"/>
        </g>
      </g>
    </g>
  </g>
</svg>